<mxfile host="app.diagrams.net" modified="2021-09-05T17:02:45.142Z" agent="5.0 (Windows NT 10.0; Win64; x64) AppleWebKit/537.36 (KHTML, like Gecko) Chrome/92.0.4515.159 Safari/537.36" etag="SLnGmvXCQOh86P9gHMeH" version="15.0.6" type="github">
  <diagram id="y5bdHwKu6lmZErwF8Dww" name="Page-1">
    <mxGraphModel dx="1422" dy="834" grid="1" gridSize="10" guides="1" tooltips="1" connect="1" arrows="1" fold="1" page="1" pageScale="1" pageWidth="827" pageHeight="1169" background="#F1FAEE" math="0" shadow="0">
      <root>
        <mxCell id="0" />
        <mxCell id="1" parent="0" />
        <mxCell id="YG9qMO2lfhQ1xVnwsHSE-5" value="" style="html=1;dashed=0;whitespace=wrap;fillColor=#A8DADC;strokeColor=#457B9D;points=[[0.005,0.63,0],[0.1,0.2,0],[0.9,0.2,0],[0.5,0,0],[0.995,0.63,0],[0.72,0.99,0],[0.5,1,0],[0.28,0.99,0]];shape=mxgraph.kubernetes.icon;prIcon=user;fontColor=#1D3557;" vertex="1" parent="1">
          <mxGeometry x="90" y="18" width="80" height="240" as="geometry" />
        </mxCell>
        <mxCell id="YG9qMO2lfhQ1xVnwsHSE-8" value="API Client&lt;br&gt;&lt;br&gt;Swagger" style="text;html=1;align=center;verticalAlign=middle;resizable=0;points=[];autosize=1;strokeColor=none;fillColor=none;fontColor=#1D3557;" vertex="1" parent="1">
          <mxGeometry x="95" y="45" width="70" height="50" as="geometry" />
        </mxCell>
        <mxCell id="YG9qMO2lfhQ1xVnwsHSE-9" value="Controller" style="rounded=1;whiteSpace=wrap;html=1;fillColor=#A8DADC;strokeColor=#457B9D;fontColor=#1D3557;" vertex="1" parent="1">
          <mxGeometry x="380" y="45" width="160" height="140" as="geometry" />
        </mxCell>
        <mxCell id="YG9qMO2lfhQ1xVnwsHSE-10" value="Program" style="rounded=1;whiteSpace=wrap;html=1;fillColor=#A8DADC;strokeColor=#457B9D;fontColor=#1D3557;" vertex="1" parent="1">
          <mxGeometry x="590" y="45" width="120" height="60" as="geometry" />
        </mxCell>
        <mxCell id="YG9qMO2lfhQ1xVnwsHSE-11" value="Startup" style="rounded=1;whiteSpace=wrap;html=1;fillColor=#A8DADC;strokeColor=#457B9D;fontColor=#1D3557;" vertex="1" parent="1">
          <mxGeometry x="590" y="125" width="120" height="60" as="geometry" />
        </mxCell>
        <mxCell id="YG9qMO2lfhQ1xVnwsHSE-12" value="Repository" style="rounded=1;whiteSpace=wrap;html=1;fillColor=#A8DADC;strokeColor=#457B9D;fontColor=#1D3557;" vertex="1" parent="1">
          <mxGeometry x="552.5" y="258" width="195" height="52" as="geometry" />
        </mxCell>
        <mxCell id="YG9qMO2lfhQ1xVnwsHSE-13" value="Model" style="rounded=1;whiteSpace=wrap;html=1;fillColor=#A8DADC;strokeColor=#457B9D;fontColor=#1D3557;" vertex="1" parent="1">
          <mxGeometry x="294" y="470" width="120" height="40" as="geometry" />
        </mxCell>
        <mxCell id="YG9qMO2lfhQ1xVnwsHSE-14" value="Data Access&lt;br&gt;(DB Context)" style="rounded=1;whiteSpace=wrap;html=1;fillColor=#A8DADC;strokeColor=#457B9D;fontColor=#1D3557;" vertex="1" parent="1">
          <mxGeometry x="590" y="440" width="120" height="100" as="geometry" />
        </mxCell>
        <mxCell id="YG9qMO2lfhQ1xVnwsHSE-15" value="DTO" style="rounded=1;whiteSpace=wrap;html=1;fillColor=#A8DADC;strokeColor=#457B9D;fontColor=#1D3557;" vertex="1" parent="1">
          <mxGeometry x="294" y="271" width="130" height="54" as="geometry" />
        </mxCell>
        <mxCell id="YG9qMO2lfhQ1xVnwsHSE-16" value="JSON" style="shape=hexagon;perimeter=hexagonPerimeter2;whiteSpace=wrap;html=1;fixedSize=1;fillColor=#A8DADC;strokeColor=#457B9D;fontColor=#1D3557;" vertex="1" parent="1">
          <mxGeometry x="226" y="185" width="120" height="35" as="geometry" />
        </mxCell>
        <mxCell id="YG9qMO2lfhQ1xVnwsHSE-28" value="" style="edgeStyle=orthogonalEdgeStyle;rounded=0;orthogonalLoop=1;jettySize=auto;html=1;labelBackgroundColor=#F1FAEE;strokeColor=#457B9D;fontColor=#1D3557;" edge="1" parent="1" source="YG9qMO2lfhQ1xVnwsHSE-21" target="YG9qMO2lfhQ1xVnwsHSE-8">
          <mxGeometry relative="1" as="geometry" />
        </mxCell>
        <mxCell id="YG9qMO2lfhQ1xVnwsHSE-21" value="" style="shape=singleArrow;whiteSpace=wrap;html=1;fillColor=#A8DADC;strokeColor=#457B9D;fontColor=#1D3557;" vertex="1" parent="1">
          <mxGeometry x="171" y="75" width="170" height="30" as="geometry" />
        </mxCell>
        <mxCell id="YG9qMO2lfhQ1xVnwsHSE-22" value="" style="shape=singleArrow;direction=west;whiteSpace=wrap;html=1;fillColor=#A8DADC;strokeColor=#457B9D;fontColor=#1D3557;" vertex="1" parent="1">
          <mxGeometry x="176" y="148" width="165" height="30" as="geometry" />
        </mxCell>
        <mxCell id="YG9qMO2lfhQ1xVnwsHSE-23" value="&lt;b&gt;&lt;font style=&quot;font-size: 14px&quot;&gt;HTTP Response&lt;/font&gt;&lt;/b&gt;" style="text;html=1;align=center;verticalAlign=middle;resizable=0;points=[];autosize=1;strokeColor=none;fillColor=none;fontColor=#1D3557;" vertex="1" parent="1">
          <mxGeometry x="250" y="45" width="120" height="20" as="geometry" />
        </mxCell>
        <mxCell id="YG9qMO2lfhQ1xVnwsHSE-24" value="&lt;b&gt;&lt;font style=&quot;font-size: 14px&quot;&gt;HTTP Response&lt;/font&gt;&lt;/b&gt;" style="text;html=1;align=center;verticalAlign=middle;resizable=0;points=[];autosize=1;strokeColor=none;fillColor=none;fontColor=#1D3557;" vertex="1" parent="1">
          <mxGeometry x="250" y="128" width="120" height="20" as="geometry" />
        </mxCell>
        <mxCell id="YG9qMO2lfhQ1xVnwsHSE-30" value="" style="html=1;shadow=0;dashed=0;align=center;verticalAlign=middle;shape=mxgraph.arrows2.twoWayArrow;dy=0.65;dx=22;strokeColor=#457B9D;fillColor=#A8DADC;fontColor=#1D3557;portConstraintRotation=1;" vertex="1" parent="1">
          <mxGeometry x="430" y="480" width="130" height="20" as="geometry" />
        </mxCell>
        <mxCell id="YG9qMO2lfhQ1xVnwsHSE-35" value="" style="shape=doubleArrow;direction=south;whiteSpace=wrap;html=1;rounded=0;sketch=0;fontColor=#1D3557;strokeColor=#457B9D;fillColor=#A8DADC;" vertex="1" parent="1">
          <mxGeometry x="346" y="350" width="26" height="100" as="geometry" />
        </mxCell>
        <mxCell id="YG9qMO2lfhQ1xVnwsHSE-38" value="" style="shape=doubleArrow;direction=south;whiteSpace=wrap;html=1;rounded=0;sketch=0;fontColor=#1D3557;strokeColor=#457B9D;fillColor=#A8DADC;" vertex="1" parent="1">
          <mxGeometry x="637" y="550" width="26" height="100" as="geometry" />
        </mxCell>
        <mxCell id="YG9qMO2lfhQ1xVnwsHSE-39" value="&lt;b&gt;&lt;font style=&quot;font-size: 14px&quot;&gt;SQL Server Databse&lt;/font&gt;&lt;/b&gt;" style="aspect=fixed;perimeter=ellipsePerimeter;html=1;align=center;shadow=0;dashed=0;spacingTop=3;image;image=img/lib/active_directory/database.svg;rounded=0;sketch=0;fontColor=#1D3557;strokeColor=#457B9D;fillColor=#A8DADC;" vertex="1" parent="1">
          <mxGeometry x="574" y="670" width="136" height="100.64" as="geometry" />
        </mxCell>
        <mxCell id="YG9qMO2lfhQ1xVnwsHSE-40" value="Mapped" style="text;html=1;align=center;verticalAlign=middle;resizable=0;points=[];autosize=1;strokeColor=none;fillColor=none;fontColor=#1D3557;" vertex="1" parent="1">
          <mxGeometry x="380" y="390" width="60" height="20" as="geometry" />
        </mxCell>
        <mxCell id="YG9qMO2lfhQ1xVnwsHSE-41" value="" style="shape=doubleArrow;direction=south;whiteSpace=wrap;html=1;rounded=0;sketch=0;fontColor=#1D3557;strokeColor=#457B9D;fillColor=#A8DADC;" vertex="1" parent="1">
          <mxGeometry x="637" y="346" width="26" height="84" as="geometry" />
        </mxCell>
        <mxCell id="YG9qMO2lfhQ1xVnwsHSE-45" value="" style="endArrow=classic;html=1;fontColor=#1D3557;strokeColor=#457B9D;fillColor=#A8DADC;" edge="1" parent="1">
          <mxGeometry width="50" height="50" relative="1" as="geometry">
            <mxPoint x="176" y="290" as="sourcePoint" />
            <mxPoint x="226" y="240" as="targetPoint" />
          </mxGeometry>
        </mxCell>
      </root>
    </mxGraphModel>
  </diagram>
</mxfile>
